<svg width="16" height="16" viewBox="0 0 16 16" fill="none" xmlns="http://www.w3.org/2000/svg">
<g clip-path="url(#clip0_320_1505)">
<path d="M0 8C0 10.1217 0.842855 12.1566 2.34315 13.6569C3.84344 15.1571 5.87827 16 8 16C10.1217 16 12.1566 15.1571 13.6569 13.6569C15.1571 12.1566 16 10.1217 16 8C16 5.87827 15.1571 3.84344 13.6569 2.34315C12.1566 0.842855 10.1217 0 8 0C5.87827 0 3.84344 0.842855 2.34315 2.34315C0.842855 3.84344 0 5.87827 0 8H0Z" fill="#EBBA4E"/>
<path d="M5.92824 6.76367L7.99999 4.69109L10.0734 6.76449L11.2792 5.55872L7.99999 2.27954L4.72247 5.55789L5.92824 6.76367ZM2.66473 7.6148L3.87051 6.40903L5.07628 7.6148L3.87051 8.82057L2.66473 7.6148ZM5.92824 8.46593L7.99999 10.5385L10.0734 8.46511L11.28 9.67006L11.2792 9.67088L7.99999 12.9492L4.72247 9.67171L4.72082 9.67006L5.92824 8.46593ZM10.9237 7.61562L12.1295 6.40985L13.3352 7.61562L12.1295 8.8214L10.9237 7.61562Z" fill="white"/>
<path d="M9.22307 7.61396L7.99998 6.39087L7.09606 7.29479L6.99214 7.3987L6.77771 7.61314L6.77606 7.61479L6.77771 7.61644L7.99998 8.8387L9.22307 7.61561L9.2239 7.61479L9.22307 7.61396Z" fill="white"/>
</g>
<defs>
<clipPath id="clip0_320_1505">
<rect width="16" height="16" fill="white"/>
</clipPath>
</defs>
</svg>
