<svg width="32" height="32" viewBox="0 0 32 32" fill="none" xmlns="http://www.w3.org/2000/svg">
<g clip-path="url(#clip0_320_1751)">
<path d="M0 16C0 20.2435 1.68571 24.3131 4.68629 27.3137C7.68687 30.3143 11.7565 32 16 32C20.2435 32 24.3131 30.3143 27.3137 27.3137C30.3143 24.3131 32 20.2435 32 16C32 11.7565 30.3143 7.68687 27.3137 4.68629C24.3131 1.68571 20.2435 0 16 0C11.7565 0 7.68687 1.68571 4.68629 4.68629C1.68571 7.68687 0 11.7565 0 16H0Z" fill="#E84142"/>
<path d="M16.9574 4.74925C16.403 3.79192 15.5211 3.79192 14.9667 4.74925L4.90056 22.4754C4.34643 23.4452 4.79976 24.214 5.90856 24.214H10.9606C11.4619 24.1833 11.9489 24.035 12.3823 23.7811C12.8156 23.5271 13.1831 23.1748 13.455 22.7524L19.54 12.2076C19.7577 11.7579 19.8708 11.2647 19.8708 10.765C19.8708 10.2653 19.7577 9.77208 19.54 9.32232L17.7259 6.13512L16.9574 4.74925ZM23.6472 16.4156C23.0926 15.4583 22.1984 15.4583 21.644 16.4156L18.1291 22.4754C17.5872 23.4327 18.0408 24.214 19.1371 24.214H26.0912C27.1998 24.214 27.6534 23.4327 27.099 22.4754L23.6472 16.4154V16.4156Z" fill="white"/>
</g>
<defs>
<clipPath id="clip0_320_1751">
<rect width="32" height="32" fill="white"/>
</clipPath>
</defs>
</svg>
