<svg width="20" height="20" viewBox="0 0 20 20" fill="none" xmlns="http://www.w3.org/2000/svg">
    <g clip-path="url(#clip0_519_2224)">
        <path
            d="M0 10C0 7.34783 1.05357 4.8043 2.92893 2.92893C4.8043 1.05357 7.34784 0 10 0C12.6522 0 15.1957 1.05357 17.0711 2.92893C18.9464 4.8043 20 7.34783 20 10C20 12.6522 18.9464 15.1957 17.0711 17.0711C15.1957 18.9464 12.6522 20 10 20C7.34784 20 4.8043 18.9464 2.92893 17.0711C1.05357 15.1957 0 12.6522 0 10H0Z"
            fill="#607AE3" />
        <path d="M9.99999 17.1867L9.90332 16.86V7.35666L9.99999 7.25999L14.41 9.86666L9.99999 17.1867Z"
            fill="#BCC5EE" />
        <path d="M10 17.1867L5.58667 9.86666L10 7.25999V11.8733V17.1867Z" fill="#F7F7F7" />
        <path d="M10 6.42333L9.94336 6.35667V2.97334L10 2.81334L14.4134 9.03L10 6.42333Z" fill="#BCC5EE" />
        <path d="M10 2.81334V6.42333L5.58667 9.03L10 2.81334Z" fill="#F7F7F7" />
        <path d="M10 7.26L14.41 9.86667L10 11.8733V7.26Z" fill="#7D93E7" />
        <path d="M5.58667 9.86667L10 7.26V11.8733L5.58667 9.86667Z" fill="#BCC5EE" />
    </g>
    <defs>
        <clipPath id="clip0_519_2224">
            <rect width="20" height="20" fill="white" transform="matrix(1 0 0 -1 0 20)" />
        </clipPath>
    </defs>
</svg>
