<svg width="17" height="16" viewBox="0 0 17 16" fill="none" xmlns="http://www.w3.org/2000/svg">
<g clip-path="url(#clip0_320_1511)">
<path d="M0.5 8C0.5 10.1217 1.34285 12.1566 2.84315 13.6569C4.34344 15.1571 6.37827 16 8.5 16C10.6217 16 12.6566 15.1571 14.1569 13.6569C15.6571 12.1566 16.5 10.1217 16.5 8C16.5 5.87827 15.6571 3.84344 14.1569 2.34315C12.6566 0.842855 10.6217 0 8.5 0C6.37827 0 4.34344 0.842855 2.84315 2.34315C1.34285 3.84344 0.5 5.87827 0.5 8H0.5Z" fill="#4DACDD"/>
<path d="M9.16665 6.40068L10.9667 5.34535V7.45601L9.16665 6.40068ZM10.9667 10.9233L8.56665 12.3303L6.16665 10.9233V8.46095L8.56665 9.86801L10.9667 8.46095V10.9233ZM6.16665 5.34548L7.96665 6.40068L6.16665 7.45601V5.34535V5.34548ZM8.86665 6.90321L10.6667 7.95841L8.86665 9.01375V6.90308V6.90321ZM8.26665 9.01375L6.46665 7.95841L8.26665 6.90321V9.01375ZM10.6667 4.84295L8.56665 6.04895L6.46665 4.84295L8.56665 3.58655L10.6667 4.84295ZM5.56665 4.64188V11.2248L8.56665 12.9333L11.5667 11.2248V4.64188L8.56665 2.93335L5.56665 4.64188Z" fill="white"/>
</g>
<defs>
<clipPath id="clip0_320_1511">
<rect width="16" height="16" fill="white" transform="translate(0.5)"/>
</clipPath>
</defs>
</svg>
