<svg width="48" height="48" viewBox="0 0 48 48" fill="none" xmlns="http://www.w3.org/2000/svg">
<path d="M24 48C17.3 48 11.625 45.675 6.975 41.025C2.325 36.375 0 30.7 0 24C0 17.3 2.325 11.625 6.975 6.975C11.625 2.325 17.3 0 24 0C30.7 0 36.375 2.325 41.025 6.975C45.675 11.625 48 17.3 48 24C48 30.7 45.675 36.375 41.025 41.025C36.375 45.675 30.7 48 24 48ZM24 34.5C24.85 34.5 25.563 34.213 26.139 33.639C26.715 33.065 27.002 32.352 27 31.5V19.5H30.75C31.4 19.5 31.937 19.287 32.361 18.861C32.785 18.435 32.998 17.898 33 17.25C33 16.6 32.787 16.063 32.361 15.639C31.935 15.215 31.398 15.002 30.75 15H17.25C16.6 15 16.063 15.213 15.639 15.639C15.215 16.065 15.002 16.602 15 17.25C15 17.9 15.213 18.437 15.639 18.861C16.065 19.285 16.602 19.498 17.25 19.5H21V31.5C21 32.35 21.288 33.063 21.864 33.639C22.44 34.215 23.152 34.502 24 34.5Z" fill="#1EE3CF"/>
</svg>
