<svg width="160" height="754" viewBox="0 0 160 754" fill="none" xmlns="http://www.w3.org/2000/svg">
<g clip-path="url(#clip0_324_548)">
<path opacity="0.84" d="M339.75 115.58C319.04 170.28 178.69 531.24 161.4 578.76C156.146 592.824 161.891 601.587 165.42 604.21L272.36 674.01C274.85 676.43 285.5 677.06 285.92 673.62C286.38 669.86 297.21 668.26 297.93 662.34C302.31 659.04 306.79 651.21 307.85 641.58C317.78 551.03 359.66 101.91 359.34 98.8402C358.56 91.3302 347.03 96.3603 339.75 115.58Z" stroke="#33C4EC" stroke-opacity="0.42" stroke-width="2.53" stroke-miterlimit="10"/>
<path opacity="0.79" d="M342.34 89.1101C323.14 139.58 165.25 540.25 149.18 584.07C143.556 598.913 150.857 607.948 155.21 610.61L271.13 680.64C273.43 682.87 285.37 684.15 285.76 680.97C286.18 677.5 299.52 677.11 300.19 671.64C305.48 669 310.88 660.89 311.98 650.69C320.96 567.09 364.58 77.4102 364.29 74.5701C363.37 65.3801 349.89 69.2601 342.34 89.1101Z" stroke="#33C4EC" stroke-opacity="0.42" stroke-width="2.41" stroke-miterlimit="10"/>
<path opacity="0.75" d="M344.92 62.6502C327.25 108.88 151.77 549.24 136.96 589.38C131.067 604.74 139.858 614.207 144.99 617.02L269.89 687.28C271.99 689.33 285.23 691.24 285.59 688.33C285.98 685.15 301.83 685.97 302.44 680.96C308.65 678.99 314.96 670.59 316.1 659.82C324.19 583.17 369.49 52.9102 369.23 50.3102C368.16 39.4402 352.75 42.1702 344.92 62.6502Z" stroke="#33C4EC" stroke-opacity="0.42" stroke-width="2.29" stroke-miterlimit="10"/>
<path opacity="0.71" d="M347.51 36.1802C331.39 78.1902 138.29 558.22 124.75 594.69C119.006 609.498 129.043 620.014 134.78 623.42L268.65 693.91C270.57 695.76 285.11 698.32 285.43 695.67C285.78 692.78 304.14 694.82 304.7 690.26C311.83 688.95 319.06 680.27 320.24 668.93C327.46 599.23 374.41 28.4102 374.18 26.0402C372.96 13.4902 355.61 15.0703 347.51 36.1802Z" stroke="#33C4EC" stroke-opacity="0.42" stroke-width="2.18" stroke-miterlimit="10"/>
<path opacity="0.67" d="M117.23 624.64C110.94 620.76 108.64 610.43 112.53 600.01C124.77 567.21 335.54 47.5204 350.1 9.73041C358.48 -12.0096 377.77 -12.4396 379.13 1.79041C379.33 3.92041 330.77 615.33 324.37 678.06C323.15 689.97 315 698.93 306.96 699.58C306.46 703.68 285.58 700.43 285.27 703.04C284.98 705.42 269.14 702.23 267.42 700.56L124.57 629.84C123.76 629.05 116.86 625.72 117.24 624.65L117.23 624.64Z" stroke="#33C4EC" stroke-opacity="0.42" stroke-width="2.06" stroke-miterlimit="10"/>
<path opacity="0.63" d="M106.27 631.11C99.05 627.13 96.24 616.17 100.31 605.31C111.24 576.18 339.69 16.8302 352.68 -16.7498C361.33 -39.1198 382.56 -38.3997 384.07 -22.4897C384.25 -20.5997 334.1 631.39 328.49 687.17C327.23 699.65 318.16 708.89 309.21 708.88C308.77 712.52 285.38 708.07 285.1 710.38C284.84 712.5 267.71 708.66 266.18 707.18L114.35 636.23C113.63 635.53 105.94 632.06 106.27 631.11Z" stroke="#33C4EC" stroke-opacity="0.42" stroke-width="1.94" stroke-miterlimit="10"/>
<path opacity="0.59" d="M95.31 637.59C87.17 633.51 83.84 621.92 88.09 610.63C97.69 585.15 343.87 -13.8396 355.27 -43.1996C364.2 -66.1996 387.37 -64.3296 389.02 -46.7296C389.18 -45.0696 337.47 647.5 332.62 696.31C331.32 709.36 321.34 718.89 311.47 718.22C311.08 721.41 285.18 715.74 284.94 717.76C284.71 719.61 266.28 715.14 264.94 713.84L104.14 642.66C103.51 642.05 95.02 638.44 95.31 637.61V637.59Z" stroke="#33C4EC" stroke-opacity="0.42" stroke-width="1.82" stroke-miterlimit="10"/>
<path opacity="0.55" d="M84.35 644.06C75.29 639.89 71.44 627.65 75.88 615.93C84.14 594.1 348.06 -44.52 357.86 -69.68C367.07 -93.31 392.17 -90.29 393.97 -71.01C394.1 -69.59 340.86 663.57 336.75 705.41C335.41 719.03 324.51 728.84 313.73 727.51C313.4 730.24 284.99 723.36 284.78 725.1C284.59 726.69 264.86 721.57 263.71 720.46L93.93 649.05C93.39 648.52 84.11 644.78 84.36 644.06H84.35Z" stroke="#33C4EC" stroke-opacity="0.42" stroke-width="1.71" stroke-miterlimit="10"/>
<path opacity="0.51" d="M73.39 650.54C63.41 646.27 59.04 633.4 63.66 621.25C70.57 603.07 352.25 -75.1697 360.44 -96.1297C369.92 -120.39 396.97 -116.22 398.91 -95.2597C399.02 -94.0797 344.26 679.68 340.87 714.55C339.49 728.74 327.67 738.83 315.98 736.84C315.7 739.12 284.78 731.03 284.61 732.47C284.45 733.79 263.42 728.04 262.47 727.11L83.72 655.47C83.27 655.03 73.19 651.15 73.4 650.55L73.39 650.54Z" stroke="#33C4EC" stroke-opacity="0.42" stroke-width="1.59" stroke-miterlimit="10"/>
<path opacity="0.46" d="M62.4299 657.01C51.5199 652.64 46.6399 639.14 51.4399 626.55C56.9799 612.01 356.46 -105.85 363.03 -122.6C372.79 -147.49 401.77 -142.17 403.86 -119.53C403.95 -118.58 347.68 695.76 345 723.66C343.58 738.42 330.85 748.79 318.23 746.14C318.01 747.96 284.58 738.66 284.44 739.81C284.31 740.87 261.99 734.47 261.22 733.73L73.4899 661.86C73.1299 661.51 62.2599 657.49 62.4199 657.01H62.4299Z" stroke="#33C4EC" stroke-opacity="0.42" stroke-width="1.47" stroke-miterlimit="10"/>
<path opacity="0.42" d="M51.47 663.49C39.64 659.03 34.24 644.89 39.22 631.87C43.39 620.97 360.67 -136.5 365.61 -149.06C375.64 -174.59 406.56 -168.12 408.8 -143.79C408.87 -143.08 351.12 711.86 349.13 732.78C347.67 748.11 334.02 758.77 320.49 755.45C320.32 756.82 284.38 746.3 284.27 747.17C284.17 747.96 260.55 740.93 259.98 740.37L63.27 668.27C63 668.01 51.33 663.85 51.46 663.49H51.47Z" stroke="#33C4EC" stroke-opacity="0.42" stroke-width="1.35" stroke-miterlimit="10"/>
<path opacity="0.38" d="M40.51 669.96C27.76 665.4 21.84 650.63 27.01 637.17C29.8 629.91 364.9 -167.16 368.2 -175.53C378.51 -201.69 411.37 -194.07 413.75 -168.06C413.79 -167.59 354.57 727.94 353.26 741.9C351.76 757.8 337.19 768.74 322.75 764.76C322.64 765.67 284.19 753.94 284.11 754.52C284.05 755.05 259.13 747.38 258.75 747L53.07 674.67C52.89 674.49 40.43 670.2 40.51 669.96Z" stroke="#33C4EC" stroke-opacity="0.42" stroke-width="1.24" stroke-miterlimit="10"/>
<path opacity="0.34" d="M29.55 676.43C15.87 671.77 9.43995 656.36 14.7899 642.48C16.1899 638.85 369.13 -197.81 370.79 -202C381.38 -228.79 416.17 -220.02 418.7 -192.33C418.72 -192.09 358.04 744.03 357.39 751.01C355.85 767.48 340.37 778.7 325.01 774.07C324.95 774.53 283.99 761.59 283.95 761.88C283.92 762.14 257.71 753.83 257.51 753.65L42.85 681.09C42.76 681 29.4999 676.57 29.5399 676.45L29.55 676.43Z" stroke="#33C4EC" stroke-opacity="0.42" stroke-width="1.12" stroke-miterlimit="10"/>
<path opacity="0.3" d="M327.27 783.38L18.5899 682.91C3.98993 678.16 -3.41008 661.93 2.56992 647.79L373.38 -228.46C384.87 -255.62 425.52 -246.02 423.65 -216.59L361.52 760.13C360.43 777.21 343.54 788.67 327.27 783.38Z" stroke="#33C4EC" stroke-opacity="0.42" stroke-miterlimit="10"/>
</g>
<defs>
<clipPath id="clip0_324_548">
<rect width="424.21" height="1030.18" fill="white" transform="matrix(-1 0 0 -1 424.21 785.18)"/>
</clipPath>
</defs>
</svg>
