<svg width="139" height="749" viewBox="0 0 139 749" fill="none" xmlns="http://www.w3.org/2000/svg">
<g clip-path="url(#clip0_315_1134)">
<path opacity="0.75" d="M-206.71 722.53C-189.04 676.3 -13.56 235.94 1.25 195.8C7.14262 180.44 -1.64807 170.973 -6.78 168.16L-131.68 97.9C-133.78 95.85 -147.02 93.9399 -147.38 96.8499C-147.77 100.03 -163.62 99.21 -164.23 104.22C-170.44 106.19 -176.75 114.59 -177.89 125.36C-185.98 202.01 -231.28 732.27 -231.02 734.87C-229.95 745.74 -214.54 743.01 -206.71 722.53Z" stroke="#33C4EC" stroke-opacity="0.42" stroke-width="2.29" stroke-miterlimit="10"/>
<path opacity="0.71" d="M-209.3 749C-193.18 706.99 -0.0799866 226.96 13.46 190.49C19.2038 175.682 9.1666 165.167 3.43001 161.76L-130.44 91.2699C-132.36 89.4199 -146.9 86.8599 -147.22 89.5099C-147.57 92.3999 -165.93 90.3599 -166.49 94.9199C-173.62 96.2299 -180.85 104.91 -182.03 116.25C-189.25 185.95 -236.2 756.77 -235.97 759.14C-234.75 771.69 -217.4 770.11 -209.3 749Z" stroke="#33C4EC" stroke-opacity="0.42" stroke-width="2.18" stroke-miterlimit="10"/>
<path opacity="0.67" d="M20.98 160.54C27.27 164.42 29.57 174.75 25.68 185.17C13.44 217.97 -197.33 737.66 -211.89 775.45C-220.27 797.19 -239.56 797.62 -240.92 783.39C-241.12 781.26 -192.56 169.85 -186.16 107.12C-184.94 95.21 -176.79 86.25 -168.75 85.6C-168.25 81.5 -147.37 84.75 -147.06 82.14C-146.77 79.76 -130.93 82.95 -129.21 84.62L13.64 155.34C14.45 156.13 21.35 159.46 20.97 160.53L20.98 160.54Z" stroke="#33C4EC" stroke-opacity="0.42" stroke-width="2.06" stroke-miterlimit="10"/>
<path opacity="0.63" d="M31.94 154.07C39.16 158.05 41.97 169.01 37.9 179.87C26.97 209 -201.48 768.35 -214.47 801.93C-223.12 824.3 -244.35 823.58 -245.86 807.67C-246.04 805.78 -195.89 153.79 -190.28 98.01C-189.02 85.53 -179.95 76.29 -171 76.3C-170.56 72.66 -147.17 77.11 -146.89 74.8C-146.63 72.68 -129.5 76.52 -127.97 78L23.86 148.95C24.58 149.65 32.27 153.12 31.94 154.07Z" stroke="#33C4EC" stroke-opacity="0.42" stroke-width="1.94" stroke-miterlimit="10"/>
<path opacity="0.59" d="M42.8999 147.59C51.0399 151.67 54.3699 163.26 50.1199 174.55C40.5199 200.03 -205.66 799.02 -217.06 828.38C-225.99 851.38 -249.16 849.51 -250.81 831.91C-250.97 830.25 -199.26 137.68 -194.41 88.87C-193.11 75.82 -183.13 66.29 -173.26 66.96C-172.87 63.77 -146.97 69.44 -146.73 67.42C-146.5 65.57 -128.07 70.04 -126.73 71.34L34.0699 142.52C34.6999 143.13 43.1899 146.74 42.8999 147.57V147.59Z" stroke="#33C4EC" stroke-opacity="0.42" stroke-width="1.82" stroke-miterlimit="10"/>
<path opacity="0.55" d="M53.86 141.12C62.92 145.29 66.77 157.53 62.33 169.25C54.07 191.08 -209.85 829.7 -219.65 854.86C-228.86 878.49 -253.96 875.47 -255.76 856.19C-255.89 854.77 -202.65 121.61 -198.54 79.7699C-197.2 66.1499 -186.3 56.3399 -175.52 57.6699C-175.19 54.9399 -146.78 61.8199 -146.57 60.0799C-146.38 58.4899 -126.65 63.6099 -125.5 64.7199L44.28 136.13C44.82 136.66 54.1 140.4 53.85 141.12H53.86Z" stroke="#33C4EC" stroke-opacity="0.42" stroke-width="1.71" stroke-miterlimit="10"/>
<path opacity="0.51" d="M64.82 134.64C74.8 138.91 79.17 151.78 74.55 163.93C67.64 182.11 -214.04 860.35 -222.23 881.31C-231.71 905.57 -258.76 901.4 -260.7 880.44C-260.81 879.26 -206.05 105.5 -202.66 70.6299C-201.28 56.4399 -189.46 46.3499 -177.77 48.3399C-177.49 46.0599 -146.57 54.1499 -146.4 52.7099C-146.24 51.3899 -125.21 57.1399 -124.26 58.0699L54.49 129.71C54.94 130.15 65.02 134.03 64.81 134.63L64.82 134.64Z" stroke="#33C4EC" stroke-opacity="0.42" stroke-width="1.59" stroke-miterlimit="10"/>
<path opacity="0.46" d="M75.78 128.17C86.69 132.54 91.57 146.04 86.77 158.63C81.23 173.17 -218.25 891.03 -224.82 907.78C-234.58 932.67 -263.56 927.35 -265.65 904.71C-265.74 903.76 -209.47 89.4201 -206.79 61.5201C-205.37 46.7601 -192.64 36.3901 -180.02 39.0401C-179.8 37.2201 -146.37 46.5201 -146.23 45.3701C-146.1 44.3101 -123.78 50.7101 -123.01 51.4501L64.72 123.32C65.08 123.67 75.95 127.69 75.79 128.17H75.78Z" stroke="#33C4EC" stroke-opacity="0.42" stroke-width="1.47" stroke-miterlimit="10"/>
<path opacity="0.42" d="M86.74 121.69C98.57 126.15 103.97 140.29 98.99 153.31C94.82 164.21 -222.46 921.68 -227.4 934.24C-237.43 959.77 -268.35 953.3 -270.59 928.97C-270.66 928.26 -212.91 73.32 -210.92 52.4C-209.46 37.07 -195.81 26.41 -182.28 29.73C-182.11 28.36 -146.17 38.88 -146.06 38.01C-145.96 37.22 -122.34 44.25 -121.77 44.81L74.94 116.91C75.21 117.17 86.88 121.33 86.75 121.69H86.74Z" stroke="#33C4EC" stroke-opacity="0.42" stroke-width="1.35" stroke-miterlimit="10"/>
<path opacity="0.38" d="M97.7 115.22C110.45 119.78 116.37 134.55 111.2 148.01C108.41 155.27 -226.69 952.34 -229.99 960.71C-240.3 986.87 -273.16 979.25 -275.54 953.24C-275.58 952.77 -216.36 57.24 -215.05 43.28C-213.55 27.38 -198.98 16.44 -184.54 20.42C-184.43 19.51 -145.98 31.24 -145.9 30.66C-145.84 30.13 -120.92 37.8 -120.54 38.18L85.14 110.51C85.32 110.69 97.78 114.98 97.7 115.22Z" stroke="#33C4EC" stroke-opacity="0.42" stroke-width="1.24" stroke-miterlimit="10"/>
<path opacity="0.34" d="M108.66 108.75C122.34 113.41 128.77 128.82 123.42 142.7C122.02 146.33 -230.92 982.99 -232.58 987.18C-243.17 1013.97 -277.96 1005.2 -280.49 977.51C-280.51 977.27 -219.83 41.1499 -219.18 34.1699C-217.64 17.6999 -202.16 6.47989 -186.8 11.1099C-186.74 10.6499 -145.78 23.5899 -145.74 23.2999C-145.71 23.0399 -119.5 31.3499 -119.3 31.5299L95.36 104.09C95.45 104.18 108.71 108.61 108.67 108.73L108.66 108.75Z" stroke="#33C4EC" stroke-opacity="0.42" stroke-width="1.12" stroke-miterlimit="10"/>
<path opacity="0.3" d="M-189.06 1.79997L119.62 102.27C134.22 107.02 141.62 123.25 135.64 137.39L-235.17 1013.64C-246.66 1040.8 -287.31 1031.2 -285.44 1001.77L-223.31 25.05C-222.22 7.96997 -205.33 -3.49003 -189.06 1.79997Z" stroke="#33C4EC" stroke-opacity="0.42" stroke-miterlimit="10"/>
</g>
<defs>
<clipPath id="clip0_315_1134">
<rect width="424.21" height="1030.18" fill="white" transform="translate(-286)"/>
</clipPath>
</defs>
</svg>

