<svg width="320" height="358" viewBox="0 0 320 358" fill="none" xmlns="http://www.w3.org/2000/svg">
<g clip-path="url(#clip0_324_242)">
<path d="M10.431 450.343L63.7077 366.952C64.8613 365.154 66.9381 364.179 69.0593 364.47C108.425 369.809 469.664 418.867 465.323 420.948C460.981 423.029 85.0596 453.183 15.4903 458.771C10.9712 459.133 7.99724 454.167 10.433 450.353L10.431 450.343Z" stroke="#33C4EC" stroke-opacity="0.42" stroke-width="3" stroke-miterlimit="10"/>
<path opacity="0.96" d="M60.5147 355.019C63.7349 354.994 69.7072 354.652 77.4819 355.738C139.122 364.344 393.566 402.242 464.707 413.337C482.977 416.188 492.43 420.095 490.079 420.923C486.491 422.196 158.348 452.061 46.6312 461.472C38.6833 462.137 31.5198 461.345 25.9969 461.289C18.6539 461.217 12.8818 459.692 8.24318 460.068C3.9849 460.407 1.37975 454.05 3.67517 450.447L55.3818 358.222C56.4652 356.53 58.5065 355.032 60.5147 355.019Z" stroke="#33C4EC" stroke-opacity="0.42" stroke-width="2.88" stroke-miterlimit="10"/>
<path opacity="0.92" d="M485.954 409.754C410.343 397.801 126.215 352.883 69.8432 344.826C53.8842 342.469 48.0165 346.958 47.0775 349.497L-3.05709 450.567C-5.21618 453.938 -2.96606 461.705 1.01968 461.38C5.36814 461.033 10.4795 465.919 17.3374 465.365C22.3645 466.94 30.0178 468.082 38.5322 467.342C143.229 458.191 511.464 422.035 514.848 420.915C518.816 419.604 510.103 413.576 491.16 410.577L485.954 409.754Z" stroke="#33C4EC" stroke-opacity="0.42" stroke-width="2.76" stroke-miterlimit="10"/>
<path opacity="0.88" d="M517.612 407.816C455.402 397.867 116.081 341.789 62.1968 333.926C47.4451 330.742 40.4084 337.169 38.734 340.781L-9.81866 450.693C-11.8296 453.839 -9.95815 463 -6.23316 462.698C-2.16704 462.368 2.2514 469.957 8.65842 469.444C13.2328 472.051 21.3426 474.028 30.4234 473.214C128.128 464.41 536.447 421.922 539.618 420.906C545.204 419.122 537.227 410.953 517.612 407.816Z" stroke="#33C4EC" stroke-opacity="0.42" stroke-width="2.65" stroke-miterlimit="10"/>
<path opacity="0.84" d="M544.053 405.048C486.315 395.705 104.567 330.444 54.5483 323.016C39.7172 320.683 32.2818 328.066 30.4179 332.048L-16.5647 450.795C-18.4373 453.719 -16.9229 464.28 -13.4685 464.003C-9.69247 463.701 -5.95714 473.992 -0.0128238 473.512C4.09709 477.143 12.6653 479.965 22.3126 479.076C113.018 470.681 561.432 421.818 564.376 420.89C571.578 418.623 564.342 408.333 544.053 405.048Z" stroke="#33C4EC" stroke-opacity="0.42" stroke-width="2.53" stroke-miterlimit="10"/>
<path opacity="0.79" d="M570.506 402.287C517.214 393.578 93.0496 319.08 46.8998 312.106C31.2313 309.567 23.8406 318.528 22.1038 323.326L-23.3067 450.918C-25.0313 453.617 -23.8955 465.572 -20.7018 465.318C-17.2179 465.035 -14.1657 478.027 -8.67229 477.588C-5.02688 482.243 3.99986 485.91 14.2136 484.946C97.9193 477.011 586.421 421.735 589.145 420.883C597.965 418.142 591.466 405.711 570.506 402.287Z" stroke="#33C4EC" stroke-opacity="0.42" stroke-width="2.41" stroke-miterlimit="10"/>
<path opacity="0.75" d="M596.947 399.519C548.116 391.46 81.5434 307.672 39.2513 301.196C23.0227 298.497 15.5071 309.005 13.7779 314.596L-30.0606 451.032C-31.6487 453.5 -30.87 466.854 -27.9468 466.624C-24.7531 466.37 -22.384 482.063 -17.3533 481.658C-14.1802 487.348 -4.6872 491.849 6.09304 490.81C82.8112 483.395 611.408 421.642 613.903 420.867C624.339 417.643 618.58 403.091 596.947 399.519Z" stroke="#33C4EC" stroke-opacity="0.42" stroke-width="2.29" stroke-miterlimit="10"/>
<path opacity="0.71" d="M623.4 396.758C579.013 389.373 70.047 296.262 31.6049 290.296C15.9468 287.632 7.65332 299.571 5.46382 305.874L-36.8046 451.144C-38.2329 453.395 -37.8308 468.153 -35.1703 467.936C-32.2688 467.701 -30.5926 486.098 -26.0128 485.734C-23.3022 492.457 -13.3507 497.803 -2.00397 496.69C67.7307 489.813 636.397 421.558 638.673 420.859C650.725 417.151 645.704 400.469 623.4 396.758Z" stroke="#33C4EC" stroke-opacity="0.42" stroke-width="2.18" stroke-miterlimit="10"/>
<path opacity="0.67" d="M0.755727 288.923C3.29822 281.984 12.9588 277.663 23.9466 279.388C58.5328 284.816 609.893 387.3 649.833 394.002C672.81 397.861 677.093 416.674 663.423 420.855C661.376 421.477 52.619 496.278 -10.1226 502.564C-22.0357 503.752 -32.4457 497.561 -34.6918 489.814C-38.8089 490.144 -39.804 469.036 -42.4232 469.255C-44.8131 469.447 -44.8582 453.289 -43.5662 451.27L-2.86988 297.155C-2.258 296.204 -0.376469 288.777 0.747938 288.935L0.755727 288.923Z" stroke="#33C4EC" stroke-opacity="0.42" stroke-width="2.06" stroke-miterlimit="10"/>
<path opacity="0.63" d="M-7.77704 279.48C-5.32272 271.609 4.85304 266.662 16.3079 268.476C47.0362 273.354 640.793 385.223 676.293 391.229C699.942 395.226 703.486 416.171 688.2 420.835C686.385 421.39 37.5506 502.755 -18.2236 508.424C-30.7032 509.687 -41.5716 502.65 -43.3533 493.879C-47.0077 494.177 -47.3294 470.369 -49.6487 470.557C-51.7778 470.727 -51.4443 453.175 -50.3005 451.38L-11.1762 288.421C-10.6344 287.575 -8.77387 279.346 -7.77704 279.48Z" stroke="#33C4EC" stroke-opacity="0.42" stroke-width="1.94" stroke-miterlimit="10"/>
<path opacity="0.59" d="M-16.3197 270.039C-13.9515 261.247 -3.26258 255.664 8.64962 257.569C35.5355 261.874 671.679 383.18 702.727 388.473C727.049 392.618 729.854 415.694 712.94 420.833C711.346 421.322 22.4411 509.282 -26.352 514.3C-39.3981 515.638 -50.7328 507.767 -52.0519 497.963C-55.2554 498.219 -54.8843 471.709 -56.9114 471.878C-58.77 472.023 -58.0794 453.071 -57.0739 451.498L-19.5197 279.705C-19.0481 278.965 -17.2105 269.925 -16.3393 270.043L-16.3197 270.039Z" stroke="#33C4EC" stroke-opacity="0.42" stroke-width="1.82" stroke-miterlimit="10"/>
<path opacity="0.55" d="M-24.8525 260.596C-22.5803 250.884 -11.3586 244.662 1.01296 246.667C24.0545 250.39 702.577 381.144 729.189 385.71C754.184 390.004 756.25 415.201 737.72 420.823C736.355 421.235 7.3748 515.82 -34.4412 520.168C-48.0538 521.581 -59.847 512.865 -60.7016 502.037C-63.4424 502.26 -62.3881 473.048 -64.1349 473.19C-65.7308 473.322 -64.6635 452.967 -63.8061 451.618L-27.824 270.98C-27.4128 270.345 -25.6059 260.505 -24.8505 260.605L-24.8525 260.596Z" stroke="#33C4EC" stroke-opacity="0.42" stroke-width="1.71" stroke-miterlimit="10"/>
<path opacity="0.51" d="M-33.3951 251.154C-31.209 240.522 -19.4742 233.664 -6.64532 235.759C12.5499 238.89 733.445 379.115 755.62 382.944C781.287 387.376 782.616 414.713 762.468 420.809C761.334 421.153 -7.72865 522.376 -42.5715 526.034C-56.7506 527.522 -69.0023 517.961 -69.3924 506.109C-71.6823 506.291 -69.9449 474.377 -71.3898 474.499C-72.7151 474.606 -71.2908 452.851 -70.5697 451.734L-36.1577 262.262C-35.8166 261.733 -34.0327 251.08 -33.4028 251.166L-33.3951 251.154Z" stroke="#33C4EC" stroke-opacity="0.42" stroke-width="1.59" stroke-miterlimit="10"/>
<path opacity="0.46" d="M-41.9279 241.711C-39.83 230.147 -27.58 222.664 -14.284 224.847C1.07064 227.364 764.347 377.099 782.073 380.183C808.413 384.764 809.001 414.222 787.238 420.801C786.325 421.08 -22.7987 528.945 -50.6706 531.903C-65.4161 533.466 -78.1242 523.07 -78.0539 510.175C-79.8811 510.323 -77.4605 475.708 -78.6153 475.801C-79.6799 475.886 -77.8769 452.737 -77.306 451.834L-44.466 253.518C-44.1951 253.095 -42.4322 241.641 -41.9299 241.701L-41.9279 241.711Z" stroke="#33C4EC" stroke-opacity="0.42" stroke-width="1.47" stroke-miterlimit="10"/>
<path opacity="0.42" d="M-50.4704 232.27C-48.4686 219.786 -35.6956 211.666 -21.9422 213.939C-10.4282 215.843 795.219 375.089 808.514 377.415C835.535 382.132 835.385 413.721 811.996 420.785C811.314 420.996 -37.8844 535.538 -58.7793 537.775C-74.0913 539.413 -87.2678 528.173 -86.7231 514.252C-88.0994 514.36 -84.9859 477.042 -85.8604 477.108C-86.6544 477.168 -84.4944 452.619 -84.0598 451.948L-52.7918 244.788C-52.5912 244.471 -50.8512 232.205 -50.4724 232.26L-50.4704 232.27Z" stroke="#33C4EC" stroke-opacity="0.42" stroke-width="1.35" stroke-miterlimit="10"/>
<path opacity="0.38" d="M-59.0032 222.827C-57.0875 209.422 -43.8013 200.666 -29.5789 203.037C-21.9074 204.317 826.106 373.096 834.967 374.654C862.661 379.52 861.772 413.24 836.765 420.778C836.313 420.911 -52.9484 542.137 -66.8881 543.647C-82.7666 545.36 -96.4015 533.275 -95.3923 518.33C-96.3059 518.405 -92.5094 478.385 -93.0936 478.423C-93.6249 478.47 -91.0981 452.519 -90.8018 452.071L-61.1039 236.075C-60.9636 235.863 -59.2544 222.797 -59.0032 222.827Z" stroke="#33C4EC" stroke-opacity="0.42" stroke-width="1.24" stroke-miterlimit="10"/>
<path opacity="0.34" d="M-67.536 213.383C-65.7085 199.048 -51.8974 189.663 -37.2274 192.127C-33.3906 192.772 856.982 371.106 861.42 371.894C889.787 376.907 888.158 412.748 861.535 420.77C861.304 420.837 -68.0183 548.757 -74.9871 549.517C-91.4321 551.305 -105.523 538.384 -104.062 522.408C-104.524 522.441 -100.045 479.72 -100.337 479.739C-100.597 479.761 -97.7018 452.419 -97.5654 452.187L-69.4396 227.347C-69.3695 227.241 -67.6832 213.363 -67.5576 213.378L-67.536 213.383Z" stroke="#33C4EC" stroke-opacity="0.42" stroke-width="1.12" stroke-miterlimit="10"/>
<path opacity="0.3" d="M-112.731 526.486L-76.0786 203.942C-74.347 188.687 -59.9267 178.188 -44.8759 181.217L887.863 369.135C916.773 374.956 915.503 416.705 886.295 420.764L-83.0959 555.389C-100.048 557.74 -114.657 543.485 -112.731 526.486Z" stroke="#33C4EC" stroke-opacity="0.42" stroke-miterlimit="10"/>
</g>
<defs>
<clipPath id="clip0_324_242">
<rect width="424.21" height="1030.18" fill="white" transform="translate(-95.0911 621.824) rotate(-101.546)"/>
</clipPath>
</defs>
</svg>
