<svg width="12" height="12" viewBox="0 0 12 12" fill="none" xmlns="http://www.w3.org/2000/svg">
<path d="M2 10.5V2.5C2 2.225 2.098 1.98967 2.294 1.794C2.49 1.59833 2.72533 1.50033 3 1.5H6C6.275 1.5 6.5105 1.598 6.7065 1.794C6.9025 1.99 7.00033 2.22533 7 2.5V6H7.5C7.775 6 8.0105 6.098 8.2065 6.294C8.4025 6.49 8.50033 6.72533 8.5 7V9.25C8.5 9.39167 8.548 9.5105 8.644 9.6065C8.74 9.7025 8.85867 9.75033 9 9.75C9.14167 9.75 9.2605 9.70217 9.3565 9.6065C9.4525 9.51083 9.50033 9.392 9.5 9.25V5.65C9.425 5.69167 9.34583 5.71883 9.2625 5.7315C9.17917 5.74417 9.09167 5.75033 9 5.75C8.65 5.75 8.35417 5.62917 8.1125 5.3875C7.87083 5.14583 7.75 4.85 7.75 4.5C7.75 4.23333 7.823 3.99367 7.969 3.781C8.115 3.56833 8.30867 3.41633 8.55 3.325L7.5 2.275L8.025 1.75L9.875 3.55C10 3.675 10.0938 3.82083 10.1565 3.9875C10.2192 4.15417 10.2503 4.325 10.25 4.5V9.25C10.25 9.6 10.1292 9.89583 9.8875 10.1375C9.64583 10.3792 9.35 10.5 9 10.5C8.65 10.5 8.35417 10.3792 8.1125 10.1375C7.87083 9.89583 7.75 9.6 7.75 9.25V6.75H7V10.5H2ZM3 5H6V2.5H3V5ZM9 5C9.14167 5 9.2605 4.95217 9.3565 4.8565C9.4525 4.76083 9.50033 4.642 9.5 4.5C9.5 4.35833 9.452 4.2395 9.356 4.1435C9.26 4.0475 9.14133 3.99967 9 4C8.85833 4 8.7395 4.048 8.6435 4.144C8.5475 4.24 8.49967 4.35867 8.5 4.5C8.5 4.64167 8.548 4.7605 8.644 4.8565C8.74 4.9525 8.85867 5.00033 9 5ZM3 9.5H6V6H3V9.5Z" fill="#C6F0FF"/>
</svg>
