<svg width="14" height="14" viewBox="0 0 14 14" fill="none" xmlns="http://www.w3.org/2000/svg">
<path d="M6.99999 1.16675C10.2217 1.16675 12.8333 3.77833 12.8333 7.00008C12.8333 10.2218 10.2217 12.8334 6.99999 12.8334C3.77824 12.8334 1.16666 10.2218 1.16666 7.00008C1.16666 3.77833 3.77824 1.16675 6.99999 1.16675ZM6.99999 2.33341C5.76231 2.33341 4.57533 2.82508 3.70016 3.70025C2.82499 4.57542 2.33332 5.7624 2.33332 7.00008C2.33332 8.23776 2.82499 9.42474 3.70016 10.2999C4.57533 11.1751 5.76231 11.6667 6.99999 11.6667C8.23767 11.6667 9.42465 11.1751 10.2998 10.2999C11.175 9.42474 11.6667 8.23776 11.6667 7.00008C11.6667 5.7624 11.175 4.57542 10.2998 3.70025C9.42465 2.82508 8.23767 2.33341 6.99999 2.33341ZM6.99999 9.33342C7.1547 9.33342 7.30307 9.39487 7.41247 9.50427C7.52187 9.61367 7.58332 9.76204 7.58332 9.91675C7.58332 10.0715 7.52187 10.2198 7.41247 10.3292C7.30307 10.4386 7.1547 10.5001 6.99999 10.5001C6.84528 10.5001 6.69691 10.4386 6.58751 10.3292C6.47812 10.2198 6.41666 10.0715 6.41666 9.91675C6.41666 9.76204 6.47812 9.61367 6.58751 9.50427C6.69691 9.39487 6.84528 9.33342 6.99999 9.33342ZM6.99999 3.79175C7.49132 3.79176 7.96731 3.96287 8.3462 4.27568C8.72508 4.58849 8.98322 5.02348 9.07625 5.50592C9.16929 5.98836 9.09142 6.48814 8.85603 6.91941C8.62064 7.35068 8.24241 7.68653 7.78632 7.86925C7.71911 7.89476 7.65836 7.93479 7.60841 7.9865C7.58274 8.01567 7.57866 8.053 7.57924 8.0915L7.58332 8.16675C7.58316 8.31543 7.52623 8.45843 7.42416 8.56655C7.3221 8.67466 7.1826 8.73972 7.03418 8.74843C6.88575 8.75715 6.7396 8.70886 6.62559 8.61343C6.51157 8.518 6.4383 8.38264 6.42074 8.235L6.41666 8.16675V8.02092C6.41666 7.34833 6.95916 6.94466 7.35232 6.78658C7.51234 6.72268 7.65193 6.6164 7.7561 6.47916C7.86027 6.34191 7.92509 6.17888 7.94359 6.00757C7.96209 5.83627 7.93358 5.66316 7.86112 5.50683C7.78866 5.3505 7.67499 5.21687 7.5323 5.12028C7.38962 5.02368 7.22332 4.96778 7.05127 4.95857C6.87921 4.94936 6.7079 4.9872 6.55572 5.06801C6.40354 5.14882 6.27625 5.26956 6.18752 5.41725C6.09879 5.56495 6.05196 5.73403 6.05207 5.90633C6.05207 6.06104 5.99062 6.20941 5.88122 6.31881C5.77182 6.42821 5.62345 6.48967 5.46874 6.48967C5.31403 6.48967 5.16566 6.42821 5.05626 6.31881C4.94687 6.20941 4.88541 6.06104 4.88541 5.90633C4.88541 5.34551 5.10819 4.80766 5.50475 4.4111C5.90132 4.01453 6.43917 3.79175 6.99999 3.79175Z" fill="#858E9B"/>
</svg>
