<svg width="29" height="44" viewBox="0 0 29 44" fill="none" xmlns="http://www.w3.org/2000/svg">
<rect width="29" height="44" fill="#09191E"/>
<g clip-path="url(#clip0_315_267)">
<path d="M15.202 2.19512L22.202 4.82012C22.5833 4.96305 22.9119 5.21898 23.1438 5.55368C23.3758 5.88838 23.5001 6.2859 23.5 6.69312V12.0561C23.5 13.7275 23.0346 15.366 22.1559 16.7878C21.2772 18.2096 20.02 19.3586 18.525 20.1061L15.171 21.7831C14.9627 21.8873 14.7329 21.9416 14.5 21.9416C14.2671 21.9416 14.0373 21.8873 13.829 21.7831L10.475 20.1061C8.98004 19.3586 7.72277 18.2096 6.84407 16.7878C5.96537 15.366 5.49996 13.7275 5.5 12.0561V6.69312C5.49995 6.2859 5.6242 5.88838 5.85615 5.55368C6.0881 5.21898 6.41669 4.96305 6.798 4.82012L13.798 2.19512C14.2506 2.02545 14.7494 2.02545 15.202 2.19512ZM14.5 4.06812L7.5 6.69312V12.0561C7.50023 13.356 7.86239 14.6301 8.54592 15.7358C9.22944 16.8414 10.2073 17.7349 11.37 18.3161L14.5 19.8831L17.63 18.3181C18.793 17.7367 19.7711 16.8429 20.4546 15.7369C21.1382 14.6309 21.5001 13.3563 21.5 12.0561V6.69312L14.5 4.06812ZM14.5 8.00012C14.9269 7.99995 15.3426 8.13635 15.6864 8.38938C16.0302 8.64242 16.284 8.99881 16.4107 9.40643C16.5374 9.81406 16.5304 10.2515 16.3906 10.6549C16.2509 11.0582 15.9857 11.4063 15.634 11.6481L15.5 11.7331V15.0001C15.4997 15.255 15.4021 15.5002 15.2272 15.6855C15.0522 15.8708 14.813 15.9824 14.5586 15.9973C14.3042 16.0122 14.0536 15.9294 13.8582 15.7659C13.6627 15.6023 13.5371 15.3702 13.507 15.1171L13.5 15.0001V11.7331C13.1182 11.5132 12.8198 11.1734 12.651 10.7664C12.4822 10.3595 12.4525 9.90817 12.5665 9.4826C12.6805 9.05704 12.9318 8.68102 13.2814 8.41295C13.6311 8.14488 14.0594 7.99976 14.5 8.00012Z" fill="#334A52" stroke="#09191E" stroke-width="0.75"/>
</g>
<path d="M0.708984 38.6602V37.5C0.841797 37.6172 1 37.7227 1.18359 37.8164C1.37109 37.9102 1.56641 37.9902 1.76953 38.0566C1.97656 38.1191 2.18359 38.168 2.39062 38.2031C2.59766 38.2383 2.78906 38.2559 2.96484 38.2559C3.57031 38.2559 4.02148 38.1445 4.31836 37.9219C4.61914 37.6953 4.76953 37.3711 4.76953 36.9492C4.76953 36.7227 4.71875 36.5254 4.61719 36.3574C4.51953 36.1895 4.38281 36.0371 4.20703 35.9004C4.03125 35.7598 3.82227 35.627 3.58008 35.502C3.3418 35.373 3.08398 35.2383 2.80664 35.0977C2.51367 34.9492 2.24023 34.7988 1.98633 34.6465C1.73242 34.4941 1.51172 34.3262 1.32422 34.1426C1.13672 33.959 0.988281 33.752 0.878906 33.5215C0.773438 33.2871 0.720703 33.0137 0.720703 32.7012C0.720703 32.3184 0.804688 31.9863 0.972656 31.7051C1.14062 31.4199 1.36133 31.1855 1.63477 31.002C1.9082 30.8184 2.21875 30.6816 2.56641 30.5918C2.91797 30.502 3.27539 30.457 3.63867 30.457C4.4668 30.457 5.07031 30.5566 5.44922 30.7559V31.8633C4.95312 31.5195 4.31641 31.3477 3.53906 31.3477C3.32422 31.3477 3.10938 31.3711 2.89453 31.418C2.67969 31.4609 2.48828 31.5332 2.32031 31.6348C2.15234 31.7363 2.01562 31.8672 1.91016 32.0273C1.80469 32.1875 1.75195 32.3828 1.75195 32.6133C1.75195 32.8281 1.79102 33.0137 1.86914 33.1699C1.95117 33.3262 2.07031 33.4688 2.22656 33.5977C2.38281 33.7266 2.57227 33.8516 2.79492 33.9727C3.02148 34.0938 3.28125 34.2266 3.57422 34.3711C3.875 34.5195 4.16016 34.6758 4.42969 34.8398C4.69922 35.0039 4.93555 35.1855 5.13867 35.3848C5.3418 35.584 5.50195 35.8047 5.61914 36.0469C5.74023 36.2891 5.80078 36.5664 5.80078 36.8789C5.80078 37.293 5.71875 37.6445 5.55469 37.9336C5.39453 38.2188 5.17578 38.4512 4.89844 38.6309C4.625 38.8105 4.30859 38.9395 3.94922 39.0176C3.58984 39.0996 3.21094 39.1406 2.8125 39.1406C2.67969 39.1406 2.51562 39.1289 2.32031 39.1055C2.125 39.0859 1.92578 39.0547 1.72266 39.0117C1.51953 38.9727 1.32617 38.9238 1.14258 38.8652C0.962891 38.8027 0.818359 38.7344 0.708984 38.6602ZM9.74414 38.9414C9.51758 39.0664 9.21875 39.1289 8.84766 39.1289C7.79688 39.1289 7.27148 38.543 7.27148 37.3711V33.8203H6.24023V33H7.27148V31.5352L8.23242 31.2246V33H9.74414V33.8203H8.23242V37.2012C8.23242 37.6035 8.30078 37.8906 8.4375 38.0625C8.57422 38.2344 8.80078 38.3203 9.11719 38.3203C9.35938 38.3203 9.56836 38.2539 9.74414 38.1211V38.9414ZM15.3223 39H14.3613V38.0625H14.3379C13.9199 38.7812 13.3047 39.1406 12.4922 39.1406C11.8945 39.1406 11.4258 38.9824 11.0859 38.666C10.75 38.3496 10.582 37.9297 10.582 37.4062C10.582 36.2852 11.2422 35.6328 12.5625 35.4492L14.3613 35.1973C14.3613 34.1777 13.9492 33.668 13.125 33.668C12.4023 33.668 11.75 33.9141 11.168 34.4062V33.4219C11.7578 33.0469 12.4375 32.8594 13.207 32.8594C14.6172 32.8594 15.3223 33.6055 15.3223 35.0977V39ZM14.3613 35.9648L12.9141 36.1641C12.4688 36.2266 12.1328 36.3379 11.9062 36.498C11.6797 36.6543 11.5664 36.9336 11.5664 37.3359C11.5664 37.6289 11.6699 37.8691 11.877 38.0566C12.0879 38.2402 12.3672 38.332 12.7148 38.332C13.1914 38.332 13.584 38.166 13.8926 37.834C14.2051 37.498 14.3613 37.0742 14.3613 36.5625V35.9648ZM22.1133 39H20.7656L18.1172 36.1172H18.0938V39H17.1328V30.1172H18.0938V35.748H18.1172L20.6367 33H21.8965L19.1133 35.8945L22.1133 39ZM27.9199 36.2402H23.6836C23.6992 36.9082 23.8789 37.4238 24.2227 37.7871C24.5664 38.1504 25.0391 38.332 25.6406 38.332C26.3164 38.332 26.9375 38.1094 27.5039 37.6641V38.5664C26.9766 38.9492 26.2793 39.1406 25.4121 39.1406C24.5645 39.1406 23.8984 38.8691 23.4141 38.3262C22.9297 37.7793 22.6875 37.0117 22.6875 36.0234C22.6875 35.0898 22.9512 34.3301 23.4785 33.7441C24.0098 33.1543 24.668 32.8594 25.4531 32.8594C26.2383 32.8594 26.8457 33.1133 27.2754 33.6211C27.7051 34.1289 27.9199 34.834 27.9199 35.7363V36.2402ZM26.9355 35.4258C26.9316 34.8711 26.7969 34.4395 26.5312 34.1309C26.2695 33.8223 25.9043 33.668 25.4355 33.668C24.9824 33.668 24.5977 33.8301 24.2812 34.1543C23.9648 34.4785 23.7695 34.9023 23.6953 35.4258H26.9355Z" fill="#334A52"/>
<defs>
<clipPath id="clip0_315_267">
<rect width="24" height="24" fill="white" transform="translate(2.5)"/>
</clipPath>
</defs>
</svg>
