<svg width="29" height="44" viewBox="0 0 29 44" fill="none" xmlns="http://www.w3.org/2000/svg">
<rect width="29" height="44" fill="#09191E"/>
<g clip-path="url(#clip0_315_273)">
<path d="M22.5 8.99981C22.7449 8.99984 22.9813 9.08977 23.1644 9.25253C23.3474 9.41529 23.4643 9.63956 23.493 9.88281L23.5 9.99981V14.9998C23.5 16.0261 23.1056 17.013 22.3983 17.7566C21.691 18.5002 20.725 18.9435 19.7 18.9948L19.5 18.9998H10.607L10.587 19.4148L10.553 19.9338C10.526 20.2798 10.201 20.4908 9.922 20.3438L9.616 20.1798L9.256 19.9768L9.058 19.8598L8.628 19.5968C8.55134 19.5483 8.47501 19.4993 8.399 19.4498L7.936 19.1398L7.726 18.9928L7.349 18.7198L7.034 18.4798C6.98949 18.4454 6.94515 18.4107 6.901 18.3758C6.665 18.1878 6.676 17.8098 6.924 17.6138L7.204 17.3968L7.544 17.1448L7.944 16.8628L8.4 16.5578L8.862 16.2668L9.278 16.0178L9.643 15.8128L9.95 15.6478C10.225 15.5048 10.521 15.6838 10.548 16.0078L10.573 16.3548L10.597 16.7698L10.607 16.9998H19.5C20.0046 17 20.4906 16.8094 20.8605 16.4663C21.2305 16.1232 21.4572 15.653 21.495 15.1498L21.5 14.9998V9.99981C21.5 9.7346 21.6054 9.48024 21.7929 9.29271C21.9804 9.10517 22.2348 8.99981 22.5 8.99981ZM19.078 3.65481L19.384 3.81981L19.744 4.02281L19.942 4.13981L20.372 4.40281L20.601 4.54981L21.064 4.85981L21.274 5.00681L21.651 5.27981L21.966 5.51981L22.099 5.62381C22.335 5.81181 22.324 6.18981 22.076 6.38581L21.796 6.60281L21.456 6.85481L21.056 7.13681L20.6 7.44181L20.138 7.73281L19.722 7.98181L19.357 8.18681L19.05 8.35181C18.775 8.49481 18.478 8.31581 18.452 7.99181L18.427 7.64481L18.403 7.22981C18.3993 7.15316 18.396 7.07649 18.393 6.99981H9.5C8.96957 6.99981 8.46086 7.21053 8.08579 7.5856C7.71071 7.96067 7.5 8.46938 7.5 8.99981V13.9998C7.5 14.265 7.39464 14.5194 7.20711 14.7069C7.01957 14.8945 6.76522 14.9998 6.5 14.9998C6.23478 14.9998 5.98043 14.8945 5.79289 14.7069C5.60536 14.5194 5.5 14.265 5.5 13.9998V8.99981C5.5 7.93895 5.92143 6.92153 6.67157 6.17138C7.42172 5.42124 8.43913 4.99981 9.5 4.99981H18.393L18.413 4.58481L18.435 4.22481L18.447 4.06581C18.474 3.71981 18.799 3.50781 19.078 3.65481Z" fill="url(#paint0_linear_315_273)" stroke="#252527" stroke-width="0.75"/>
</g>
<path d="M0.708984 38.6602V37.5C0.841797 37.6172 1 37.7227 1.18359 37.8164C1.37109 37.9102 1.56641 37.9902 1.76953 38.0566C1.97656 38.1191 2.18359 38.168 2.39062 38.2031C2.59766 38.2383 2.78906 38.2559 2.96484 38.2559C3.57031 38.2559 4.02148 38.1445 4.31836 37.9219C4.61914 37.6953 4.76953 37.3711 4.76953 36.9492C4.76953 36.7227 4.71875 36.5254 4.61719 36.3574C4.51953 36.1895 4.38281 36.0371 4.20703 35.9004C4.03125 35.7598 3.82227 35.627 3.58008 35.502C3.3418 35.373 3.08398 35.2383 2.80664 35.0977C2.51367 34.9492 2.24023 34.7988 1.98633 34.6465C1.73242 34.4941 1.51172 34.3262 1.32422 34.1426C1.13672 33.959 0.988281 33.752 0.878906 33.5215C0.773438 33.2871 0.720703 33.0137 0.720703 32.7012C0.720703 32.3184 0.804688 31.9863 0.972656 31.7051C1.14062 31.4199 1.36133 31.1855 1.63477 31.002C1.9082 30.8184 2.21875 30.6816 2.56641 30.5918C2.91797 30.502 3.27539 30.457 3.63867 30.457C4.4668 30.457 5.07031 30.5566 5.44922 30.7559V31.8633C4.95312 31.5195 4.31641 31.3477 3.53906 31.3477C3.32422 31.3477 3.10938 31.3711 2.89453 31.418C2.67969 31.4609 2.48828 31.5332 2.32031 31.6348C2.15234 31.7363 2.01562 31.8672 1.91016 32.0273C1.80469 32.1875 1.75195 32.3828 1.75195 32.6133C1.75195 32.8281 1.79102 33.0137 1.86914 33.1699C1.95117 33.3262 2.07031 33.4688 2.22656 33.5977C2.38281 33.7266 2.57227 33.8516 2.79492 33.9727C3.02148 34.0938 3.28125 34.2266 3.57422 34.3711C3.875 34.5195 4.16016 34.6758 4.42969 34.8398C4.69922 35.0039 4.93555 35.1855 5.13867 35.3848C5.3418 35.584 5.50195 35.8047 5.61914 36.0469C5.74023 36.2891 5.80078 36.5664 5.80078 36.8789C5.80078 37.293 5.71875 37.6445 5.55469 37.9336C5.39453 38.2188 5.17578 38.4512 4.89844 38.6309C4.625 38.8105 4.30859 38.9395 3.94922 39.0176C3.58984 39.0996 3.21094 39.1406 2.8125 39.1406C2.67969 39.1406 2.51562 39.1289 2.32031 39.1055C2.125 39.0859 1.92578 39.0547 1.72266 39.0117C1.51953 38.9727 1.32617 38.9238 1.14258 38.8652C0.962891 38.8027 0.818359 38.7344 0.708984 38.6602ZM14.7422 33L12.9434 39H11.9473L10.7109 34.7051C10.6641 34.541 10.6328 34.3555 10.6172 34.1484H10.5938C10.582 34.2891 10.541 34.4707 10.4707 34.6934L9.12891 39H8.16797L6.35156 33H7.35938L8.60156 37.5117C8.64062 37.6484 8.66797 37.8281 8.68359 38.0508H8.73047C8.74219 37.8789 8.77734 37.6953 8.83594 37.5L10.2188 33H11.0977L12.3398 37.5234C12.3789 37.668 12.4082 37.8477 12.4277 38.0625H12.4746C12.4824 37.9102 12.5156 37.7305 12.5742 37.5234L13.793 33H14.7422ZM20.1504 39H19.1895V38.0625H19.166C18.748 38.7812 18.1328 39.1406 17.3203 39.1406C16.7227 39.1406 16.2539 38.9824 15.9141 38.666C15.5781 38.3496 15.4102 37.9297 15.4102 37.4062C15.4102 36.2852 16.0703 35.6328 17.3906 35.4492L19.1895 35.1973C19.1895 34.1777 18.7773 33.668 17.9531 33.668C17.2305 33.668 16.5781 33.9141 15.9961 34.4062V33.4219C16.5859 33.0469 17.2656 32.8594 18.0352 32.8594C19.4453 32.8594 20.1504 33.6055 20.1504 35.0977V39ZM19.1895 35.9648L17.7422 36.1641C17.2969 36.2266 16.9609 36.3379 16.7344 36.498C16.5078 36.6543 16.3945 36.9336 16.3945 37.3359C16.3945 37.6289 16.498 37.8691 16.7051 38.0566C16.916 38.2402 17.1953 38.332 17.543 38.332C18.0195 38.332 18.4121 38.166 18.7207 37.834C19.0332 37.498 19.1895 37.0742 19.1895 36.5625V35.9648ZM22.9453 38.1328H22.9219V41.7598H21.9609V33H22.9219V34.0547H22.9453C23.418 33.2578 24.1094 32.8594 25.0195 32.8594C25.793 32.8594 26.3965 33.1289 26.8301 33.668C27.2637 34.2031 27.4805 34.9219 27.4805 35.8242C27.4805 36.8281 27.2363 37.6328 26.748 38.2383C26.2598 38.8398 25.5918 39.1406 24.7441 39.1406C23.9668 39.1406 23.3672 38.8047 22.9453 38.1328ZM22.9219 35.7129V36.5508C22.9219 37.0469 23.082 37.4688 23.4023 37.8164C23.7266 38.1602 24.1367 38.332 24.6328 38.332C25.2148 38.332 25.6699 38.1094 25.998 37.6641C26.3301 37.2188 26.4961 36.5996 26.4961 35.8066C26.4961 35.1387 26.3418 34.6152 26.0332 34.2363C25.7246 33.8574 25.3066 33.668 24.7793 33.668C24.2207 33.668 23.7715 33.8633 23.4316 34.2539C23.0918 34.6406 22.9219 35.127 22.9219 35.7129Z" fill="url(#paint1_linear_315_273)"/>
<defs>
<linearGradient id="paint0_linear_315_273" x1="5.5" y1="11.9998" x2="23.5" y2="11.9998" gradientUnits="userSpaceOnUse">
<stop stop-color="#00CCF5"/>
<stop offset="1" stop-color="#0CD6FF"/>
</linearGradient>
<linearGradient id="paint1_linear_315_273" x1="0" y1="34" x2="29" y2="34" gradientUnits="userSpaceOnUse">
<stop stop-color="#00CCF5"/>
<stop offset="1" stop-color="#0CD6FF"/>
</linearGradient>
<clipPath id="clip0_315_273">
<rect width="24" height="24" fill="white" transform="translate(2.5)"/>
</clipPath>
</defs>
</svg>
