<svg width="12" height="14" viewBox="0 0 12 14" fill="none" xmlns="http://www.w3.org/2000/svg">
    <path
        d="M5.25001 10.9323L2.28751 7.96975C2.21833 7.89812 2.13557 7.84098 2.04407 7.80167C1.95256 7.76237 1.85415 7.74168 1.75456 7.74081C1.65498 7.73995 1.55622 7.75892 1.46405 7.79663C1.37188 7.83434 1.28814 7.89003 1.21772 7.96045C1.1473 8.03087 1.09161 8.11461 1.0539 8.20678C1.01619 8.29896 0.99721 8.39772 0.998075 8.4973C0.998941 8.59688 1.01963 8.6953 1.05894 8.7868C1.09824 8.87831 1.15538 8.96106 1.22701 9.03025L5.46976 13.273C5.61041 13.4136 5.80114 13.4926 6.00001 13.4926C6.19889 13.4926 6.38962 13.4136 6.53026 13.273L10.773 9.03025C10.9096 8.8888 10.9852 8.69935 10.9835 8.5027C10.9818 8.30605 10.9029 8.11794 10.7639 7.97889C10.6248 7.83983 10.4367 7.76095 10.2401 7.75924C10.0434 7.75754 9.85397 7.83313 9.71251 7.96975L6.75001 10.9323V1C6.75001 0.801088 6.671 0.610322 6.53034 0.46967C6.38969 0.329018 6.19893 0.25 6.00001 0.25C5.8011 0.25 5.61034 0.329018 5.46968 0.46967C5.32903 0.610322 5.25001 0.801088 5.25001 1V10.9323Z"
        fill="#2C3342" stroke="#DC892E" stroke-width="0.5" />
</svg>
