<svg width="20" height="20" viewBox="0 0 20 20" fill="none" xmlns="http://www.w3.org/2000/svg">
    <g clipPath="url(#clip0_519_2202)">
        <path fillRule="evenodd" clipRule="evenodd"
            d="M8.9583 2.13916C9.25176 1.96967 9.58214 1.87433 9.92078 1.86141C10.2594 1.84849 10.5961 1.91837 10.9016 2.06499L11.0416 2.13916L16.2866 5.16666C16.5816 5.3369 16.8304 5.57686 17.0111 5.86553C17.1918 6.15421 17.299 6.48278 17.3233 6.8225L17.3283 6.97083V13.0275C17.3282 13.368 17.2447 13.7032 17.085 14.004C16.9254 14.3047 16.6945 14.5617 16.4125 14.7525L16.2875 14.8317L11.0416 17.86C10.7482 18.0295 10.4178 18.1248 10.0791 18.1377C9.74051 18.1507 9.40382 18.0808 9.0983 17.9342L8.9583 17.8592L3.7133 14.8333C3.41832 14.6631 3.16957 14.4231 2.98885 14.1345C2.80812 13.8458 2.70092 13.5172 2.67663 13.1775L2.67163 13.0292V6.97166C2.6718 6.63111 2.75545 6.29579 2.91525 5.99506C3.07506 5.69434 3.30615 5.43737 3.5883 5.24666L3.7133 5.1675L8.9583 2.13916ZM10.2083 3.58249C10.1557 3.55218 10.0972 3.53371 10.0367 3.52838C9.97625 3.52306 9.91536 3.531 9.8583 3.55166L9.79163 3.58249L4.54663 6.61083C4.49412 6.64118 4.44886 6.68264 4.41403 6.73229C4.3792 6.78195 4.35563 6.83862 4.34496 6.89833L4.3383 6.97166V13.0283C4.33836 13.089 4.35167 13.1489 4.37729 13.2039C4.40291 13.2589 4.44022 13.3076 4.48663 13.3467L4.54663 13.3883L9.79163 16.4175C9.8442 16.4478 9.90277 16.4663 9.96322 16.4716C10.0237 16.4769 10.0846 16.469 10.1416 16.4483L10.2083 16.4175L15.4533 13.3892C15.506 13.3589 15.5514 13.3175 15.5864 13.2678C15.6213 13.2182 15.645 13.1614 15.6558 13.1017L15.6616 13.0283V6.97166C15.6617 6.91107 15.6485 6.85119 15.623 6.79621C15.5975 6.74123 15.5604 6.69247 15.5141 6.65333L15.4533 6.61083L10.2083 3.58249ZM9.99996 6.66666C10.884 6.66666 11.7319 7.01785 12.357 7.64297C12.9821 8.26809 13.3333 9.11594 13.3333 10C13.3333 10.8841 12.9821 11.7319 12.357 12.357C11.7319 12.9821 10.884 13.3333 9.99996 13.3333C9.11591 13.3333 8.26806 12.9821 7.64294 12.357C7.01782 11.7319 6.66663 10.8841 6.66663 10C6.66663 9.11594 7.01782 8.26809 7.64294 7.64297C8.26806 7.01785 9.11591 6.66666 9.99996 6.66666ZM9.99996 8.33333C9.55794 8.33333 9.13401 8.50892 8.82145 8.82148C8.50889 9.13404 8.3333 9.55797 8.3333 10C8.3333 10.442 8.50889 10.8659 8.82145 11.1785C9.13401 11.4911 9.55794 11.6667 9.99996 11.6667C10.442 11.6667 10.8659 11.4911 11.1785 11.1785C11.491 10.8659 11.6666 10.442 11.6666 10C11.6666 9.55797 11.491 9.13404 11.1785 8.82148C10.8659 8.50892 10.442 8.33333 9.99996 8.33333Z"
            fill="#70747E" stroke="#323A49" strokeWidth="0.5" />
    </g>
    <defs>
        <clipPath id="clip0_519_2202">
            <rect width="20" height="20" fill="white" />
        </clipPath>
    </defs>
</svg>
