<svg width="34" height="44" viewBox="0 0 34 44" fill="none" xmlns="http://www.w3.org/2000/svg">
<rect width="34" height="44" fill="#09191E"/>
<g clip-path="url(#clip0_315_279)">
<path d="M22 13C22 13.3978 21.842 13.7794 21.5607 14.0607C21.2794 14.342 20.8978 14.5 20.5 14.5C20.1022 14.5 19.7206 14.342 19.4393 14.0607C19.158 13.7794 19 13.3978 19 13C19 12.6022 19.158 12.2206 19.4393 11.9393C19.7206 11.658 20.1022 11.5 20.5 11.5C20.8978 11.5 21.2794 11.658 21.5607 11.9393C21.842 12.2206 22 12.6022 22 13Z" fill="#334A52"/>
<path fill-rule="evenodd" clip-rule="evenodd" d="M9.813 5.72802L20.813 2.58502C21.1851 2.47867 21.5768 2.46016 21.9573 2.53094C22.3377 2.60172 22.6966 2.75986 23.0055 2.99291C23.3145 3.22596 23.5651 3.52755 23.7377 3.87393C23.9102 4.22031 24 4.60203 24 4.98902V6.00002C24.5304 6.00002 25.0391 6.21073 25.4142 6.5858C25.7893 6.96088 26 7.46958 26 8.00002V18C26 18.5304 25.7893 19.0392 25.4142 19.4142C25.0391 19.7893 24.5304 20 24 20H10C9.46957 20 8.96086 19.7893 8.58579 19.4142C8.21071 19.0392 8 18.5304 8 18V8.00002C8 6.95502 8.835 6.00702 9.813 5.72802ZM21.363 4.50802C21.4373 4.48684 21.5156 4.48318 21.5915 4.49733C21.6675 4.51148 21.7392 4.54305 21.8009 4.58956C21.8626 4.63607 21.9127 4.69626 21.9473 4.76539C21.9818 4.83453 21.9999 4.91073 22 4.98802V6.00002H15.5L21.363 4.50802ZM10 8.00002H24V18H10V8.00002Z" fill="#334A52" stroke="#09191E" stroke-width="0.75" stroke-linejoin="round"/>
</g>
<path d="M11.0625 30.5977L8.68945 39H7.53516L5.80664 32.8594C5.73242 32.5977 5.6875 32.3125 5.67188 32.0039H5.64844C5.625 32.293 5.57422 32.5742 5.49609 32.8477L3.75586 39H2.61328L0.152344 30.5977H1.23633L3.02344 37.043C3.09766 37.3125 3.14453 37.5938 3.16406 37.8867H3.19336C3.21289 37.6797 3.27344 37.3984 3.375 37.043L5.23242 30.5977H6.17578L7.95703 37.0898C8.01953 37.3125 8.06641 37.5742 8.09766 37.875H8.12109C8.13672 37.6719 8.18945 37.4023 8.2793 37.0664L9.99609 30.5977H11.0625ZM16.0137 39H15.0527V38.0625H15.0293C14.6113 38.7812 13.9961 39.1406 13.1836 39.1406C12.5859 39.1406 12.1172 38.9824 11.7773 38.666C11.4414 38.3496 11.2734 37.9297 11.2734 37.4062C11.2734 36.2852 11.9336 35.6328 13.2539 35.4492L15.0527 35.1973C15.0527 34.1777 14.6406 33.668 13.8164 33.668C13.0938 33.668 12.4414 33.9141 11.8594 34.4062V33.4219C12.4492 33.0469 13.1289 32.8594 13.8984 32.8594C15.3086 32.8594 16.0137 33.6055 16.0137 35.0977V39ZM15.0527 35.9648L13.6055 36.1641C13.1602 36.2266 12.8242 36.3379 12.5977 36.498C12.3711 36.6543 12.2578 36.9336 12.2578 37.3359C12.2578 37.6289 12.3613 37.8691 12.5684 38.0566C12.7793 38.2402 13.0586 38.332 13.4062 38.332C13.8828 38.332 14.2754 38.166 14.584 37.834C14.8965 37.498 15.0527 37.0742 15.0527 36.5625V35.9648ZM18.7852 39H17.8242V30.1172H18.7852V39ZM21.6914 39H20.7305V30.1172H21.6914V39ZM28.459 36.2402H24.2227C24.2383 36.9082 24.418 37.4238 24.7617 37.7871C25.1055 38.1504 25.5781 38.332 26.1797 38.332C26.8555 38.332 27.4766 38.1094 28.043 37.6641V38.5664C27.5156 38.9492 26.8184 39.1406 25.9512 39.1406C25.1035 39.1406 24.4375 38.8691 23.9531 38.3262C23.4688 37.7793 23.2266 37.0117 23.2266 36.0234C23.2266 35.0898 23.4902 34.3301 24.0176 33.7441C24.5488 33.1543 25.207 32.8594 25.9922 32.8594C26.7773 32.8594 27.3848 33.1133 27.8145 33.6211C28.2441 34.1289 28.459 34.834 28.459 35.7363V36.2402ZM27.4746 35.4258C27.4707 34.8711 27.3359 34.4395 27.0703 34.1309C26.8086 33.8223 26.4434 33.668 25.9746 33.668C25.5215 33.668 25.1367 33.8301 24.8203 34.1543C24.5039 34.4785 24.3086 34.9023 24.2344 35.4258H27.4746ZM32.7012 38.9414C32.4746 39.0664 32.1758 39.1289 31.8047 39.1289C30.7539 39.1289 30.2285 38.543 30.2285 37.3711V33.8203H29.1973V33H30.2285V31.5352L31.1895 31.2246V33H32.7012V33.8203H31.1895V37.2012C31.1895 37.6035 31.2578 37.8906 31.3945 38.0625C31.5312 38.2344 31.7578 38.3203 32.0742 38.3203C32.3164 38.3203 32.5254 38.2539 32.7012 38.1211V38.9414Z" fill="#334A52"/>
<defs>
<clipPath id="clip0_315_279">
<rect width="24" height="24" fill="white" transform="translate(5)"/>
</clipPath>
</defs>
</svg>
