<svg width="77" height="12" viewBox="0 0 77 12" fill="none" xmlns="http://www.w3.org/2000/svg">
<path d="M12.1406 0.335938V8.01562C12.1406 8.97396 11.8516 9.75521 11.2734 10.3594C10.6953 10.9635 9.94792 11.2656 9.03125 11.2656C7.92708 11.2656 7.08333 10.763 6.5 9.75781C6.14062 10.2995 5.75521 10.6875 5.34375 10.9219C4.93229 11.151 4.42448 11.2656 3.82031 11.2656C2.86198 11.2656 2.1276 10.9635 1.61719 10.3594C1.10677 9.75521 0.851562 8.88542 0.851562 7.75V0.335938H4.02344V7.27344C4.02344 7.61719 4.04948 7.84375 4.10156 7.95312C4.15885 8.0625 4.27083 8.11719 4.4375 8.11719C4.75 8.11719 4.90625 7.85417 4.90625 7.32812V0.335938H8.07812V7.27344C8.07812 7.60677 8.10677 7.83073 8.16406 7.94531C8.22135 8.0599 8.33333 8.11719 8.5 8.11719C8.8125 8.11719 8.96875 7.83594 8.96875 7.27344V0.335938H12.1406ZM16.7734 0.335938V3.59375C17.2682 3.23438 17.763 3.05469 18.2578 3.05469C19.0078 3.05469 19.6016 3.32552 20.0391 3.86719C20.4818 4.40885 20.7031 5.14062 20.7031 6.0625V11H17.7812V6.88281C17.7812 6.54948 17.7448 6.32552 17.6719 6.21094C17.6042 6.09635 17.4688 6.03906 17.2656 6.03906C16.9375 6.03906 16.7734 6.28125 16.7734 6.76562V11H13.8516V0.335938H16.7734ZM26.7422 8.07812V11.1016C26.5026 11.1432 26.2839 11.1641 26.0859 11.1641C24.9141 11.1641 23.9375 10.7786 23.1562 10.0078C22.375 9.23698 21.9844 8.27083 21.9844 7.10938C21.9844 5.97917 22.3776 5.02083 23.1641 4.23438C23.9557 3.44792 24.9167 3.05469 26.0469 3.05469C27.3073 3.05469 28.2995 3.42448 29.0234 4.16406C29.7526 4.89844 30.1172 5.90365 30.1172 7.17969V11H27.1953V7.39062C27.1953 6.97917 27.0938 6.65104 26.8906 6.40625C26.6927 6.16146 26.4245 6.03906 26.0859 6.03906C25.7786 6.03906 25.513 6.15104 25.2891 6.375C25.0651 6.59896 24.9531 6.86458 24.9531 7.17188C24.9531 7.49479 25.0547 7.76042 25.2578 7.96875C25.4609 8.17708 25.7188 8.28125 26.0312 8.28125C26.2865 8.28125 26.5234 8.21354 26.7422 8.07812ZM34.7422 0.335938V11H31.8203V0.335938H34.7422ZM44.1172 7.57812H39.6875C39.6198 7.35417 39.5859 7.14844 39.5859 6.96094C39.5859 6.70052 39.6328 6.44531 39.7266 6.19531H41.2109C41.1068 5.61719 40.7812 5.32812 40.2344 5.32812C39.8698 5.32812 39.5729 5.48438 39.3438 5.79688C39.1146 6.10417 39 6.5 39 6.98438C39 7.48958 39.1094 7.89844 39.3281 8.21094C39.5521 8.52344 39.8438 8.67969 40.2031 8.67969C40.4948 8.67969 40.776 8.53385 41.0469 8.24219L42.7109 10.2422C41.9349 10.8516 41.0729 11.1562 40.125 11.1562C38.9688 11.1562 37.9974 10.7682 37.2109 9.99219C36.4245 9.21615 36.0312 8.25521 36.0312 7.10938C36.0312 5.96875 36.4271 5.00521 37.2188 4.21875C38.0156 3.43229 38.9922 3.03906 40.1484 3.03906C41.2786 3.03906 42.2266 3.42448 42.9922 4.19531C43.763 4.96094 44.1484 5.90625 44.1484 7.03125C44.1484 7.14583 44.138 7.32812 44.1172 7.57812ZM52.7266 3.39844V11H49.5547V0.335938H53.6875C55.5 0.335938 56.9193 0.747396 57.9453 1.57031C59.1641 2.55469 59.7734 3.89062 59.7734 5.57812C59.7734 7.19271 59.2526 8.51042 58.2109 9.53125C57.1693 10.5521 55.8281 11.0625 54.1875 11.0625C53.9948 11.0625 53.6797 11.0521 53.2422 11.0312V7.89844H53.75C55.599 7.89844 56.5234 7.125 56.5234 5.57812C56.5234 4.125 55.6146 3.39844 53.7969 3.39844H52.7266ZM68.7109 7.57812H64.2812C64.2135 7.35417 64.1797 7.14844 64.1797 6.96094C64.1797 6.70052 64.2266 6.44531 64.3203 6.19531H65.8047C65.7005 5.61719 65.375 5.32812 64.8281 5.32812C64.4635 5.32812 64.1667 5.48438 63.9375 5.79688C63.7083 6.10417 63.5938 6.5 63.5938 6.98438C63.5938 7.48958 63.7031 7.89844 63.9219 8.21094C64.1458 8.52344 64.4375 8.67969 64.7969 8.67969C65.0885 8.67969 65.3698 8.53385 65.6406 8.24219L67.3047 10.2422C66.5286 10.8516 65.6667 11.1562 64.7188 11.1562C63.5625 11.1562 62.5911 10.7682 61.8047 9.99219C61.0182 9.21615 60.625 8.25521 60.625 7.10938C60.625 5.96875 61.0208 5.00521 61.8125 4.21875C62.6094 3.43229 63.5859 3.03906 64.7422 3.03906C65.8724 3.03906 66.8203 3.42448 67.5859 4.19531C68.3568 4.96094 68.7422 5.90625 68.7422 7.03125C68.7422 7.14583 68.7318 7.32812 68.7109 7.57812ZM73.8594 3.21094H76.7812V4.92188C76.7812 5.41146 76.7083 5.80729 76.5625 6.10938C76.4219 6.40625 76.1771 6.66927 75.8281 6.89844C76.1823 7.13802 76.4297 7.40104 76.5703 7.6875C76.7109 7.97396 76.7812 8.34896 76.7812 8.8125V11H73.8594V8.64844C73.8594 8.11198 73.6719 7.84375 73.2969 7.84375C72.9323 7.84375 72.75 8.07552 72.75 8.53906V11H69.8281V8.92188C69.8281 8.44271 69.9141 8.05208 70.0859 7.75C70.263 7.44792 70.5677 7.16406 71 6.89844C70.5677 6.61719 70.263 6.32031 70.0859 6.00781C69.9141 5.69531 69.8281 5.29688 69.8281 4.8125V3.21094H72.75V5.17969C72.75 5.38281 72.8021 5.54948 72.9062 5.67969C73.0104 5.8099 73.1432 5.875 73.3047 5.875C73.6745 5.875 73.8594 5.64323 73.8594 5.17969V3.21094Z" fill="#31BEE4"/>
</svg>
